<mxfile host="Electron" agent="Mozilla/5.0 (Windows NT 10.0; Win64; x64) AppleWebKit/537.36 (KHTML, like Gecko) draw.io/25.0.2 Chrome/128.0.6613.186 Electron/32.2.5 Safari/537.36" version="25.0.2">
  <diagram name="Page-1" id="kG8t0r-oh9vo8bUkEsmf">
    <mxGraphModel dx="1674" dy="836" grid="1" gridSize="10" guides="1" tooltips="1" connect="1" arrows="1" fold="1" page="1" pageScale="1" pageWidth="850" pageHeight="1100" math="0" shadow="0">
      <root>
        <mxCell id="0" />
        <mxCell id="1" parent="0" />
        <mxCell id="yUtHnMbodc9kGuZpTZaH-5" style="edgeStyle=orthogonalEdgeStyle;rounded=0;orthogonalLoop=1;jettySize=auto;html=1;exitX=0.25;exitY=1;exitDx=0;exitDy=0;entryX=1;entryY=0.5;entryDx=0;entryDy=0;" edge="1" parent="1" source="yUtHnMbodc9kGuZpTZaH-2" target="yUtHnMbodc9kGuZpTZaH-3">
          <mxGeometry relative="1" as="geometry" />
        </mxCell>
        <mxCell id="yUtHnMbodc9kGuZpTZaH-6" style="edgeStyle=orthogonalEdgeStyle;rounded=0;orthogonalLoop=1;jettySize=auto;html=1;exitX=0.25;exitY=1;exitDx=0;exitDy=0;entryX=1;entryY=0.5;entryDx=0;entryDy=0;" edge="1" parent="1" source="yUtHnMbodc9kGuZpTZaH-2" target="yUtHnMbodc9kGuZpTZaH-4">
          <mxGeometry relative="1" as="geometry" />
        </mxCell>
        <mxCell id="yUtHnMbodc9kGuZpTZaH-9" style="edgeStyle=orthogonalEdgeStyle;rounded=0;orthogonalLoop=1;jettySize=auto;html=1;exitX=0.25;exitY=1;exitDx=0;exitDy=0;entryX=1;entryY=0.5;entryDx=0;entryDy=0;" edge="1" parent="1" source="yUtHnMbodc9kGuZpTZaH-2" target="yUtHnMbodc9kGuZpTZaH-8">
          <mxGeometry relative="1" as="geometry" />
        </mxCell>
        <mxCell id="yUtHnMbodc9kGuZpTZaH-11" style="edgeStyle=orthogonalEdgeStyle;rounded=0;orthogonalLoop=1;jettySize=auto;html=1;exitX=0.25;exitY=1;exitDx=0;exitDy=0;entryX=1;entryY=0.5;entryDx=0;entryDy=0;" edge="1" parent="1" source="yUtHnMbodc9kGuZpTZaH-2" target="yUtHnMbodc9kGuZpTZaH-10">
          <mxGeometry relative="1" as="geometry" />
        </mxCell>
        <mxCell id="yUtHnMbodc9kGuZpTZaH-2" value="&lt;i&gt;Measurement&amp;nbsp;&lt;/i&gt;&lt;div&gt;&lt;i&gt;device&lt;/i&gt;&lt;/div&gt;" style="label;whiteSpace=wrap;html=1;image=img/clipart/Gear_128x128.png" vertex="1" parent="1">
          <mxGeometry x="300" y="170" width="140" height="60" as="geometry" />
        </mxCell>
        <mxCell id="yUtHnMbodc9kGuZpTZaH-3" value="&lt;b&gt;DIGITAL&amp;nbsp;&lt;/b&gt;&lt;div&gt;&lt;b&gt;MULTIMETER&lt;/b&gt;&lt;/div&gt;" style="rounded=1;whiteSpace=wrap;html=1;" vertex="1" parent="1">
          <mxGeometry x="110" y="260" width="120" height="60" as="geometry" />
        </mxCell>
        <mxCell id="yUtHnMbodc9kGuZpTZaH-4" value="&lt;b&gt;DC ELECTRICAL&lt;/b&gt;&lt;div&gt;&lt;b&gt;LOAD&lt;/b&gt;&lt;/div&gt;" style="rounded=1;whiteSpace=wrap;html=1;" vertex="1" parent="1">
          <mxGeometry x="110" y="330" width="120" height="60" as="geometry" />
        </mxCell>
        <mxCell id="yUtHnMbodc9kGuZpTZaH-8" value="&lt;b&gt;PC USB&amp;nbsp;&lt;/b&gt;&lt;div&gt;&lt;b&gt;OSCILLOSCOPE&lt;/b&gt;&lt;/div&gt;" style="rounded=1;whiteSpace=wrap;html=1;" vertex="1" parent="1">
          <mxGeometry x="110" y="400" width="120" height="60" as="geometry" />
        </mxCell>
        <mxCell id="yUtHnMbodc9kGuZpTZaH-10" value="&lt;b&gt;DC ELECTRONIC&lt;/b&gt;&lt;div&gt;&lt;b&gt;LOAD&lt;/b&gt;&lt;/div&gt;" style="rounded=1;whiteSpace=wrap;html=1;" vertex="1" parent="1">
          <mxGeometry x="110" y="470" width="120" height="60" as="geometry" />
        </mxCell>
      </root>
    </mxGraphModel>
  </diagram>
</mxfile>
